# xmcd
# 
# Track frame offsets:
#	150
#	13900
#	30387
#	47580
#	61922
#	79980
#	94910
#	108312
#	121530
#	131645
#	146377
#	160410
#	174860
#	187372
#	202435
#	215380
#	237087
#	254055
#	270632
#
# Disc length: 3842 seconds
#
# Revision: 1
# Processed by: cddbd v1.4PL0 Copyright (c) Steve Scherf et al.
# Submitted via: Audio-CD-Archiv 2.10.446
#
DISCID=140f0013
DTITLE="Little" Junior Parker - Sonny Lester Collection
DYEAR=1900
DGENRE=blues
TTITLE0=Five Long Years
TTITLE1=Tin Pan Alley
TTITLE2=Blue Shadows
TTITLE3=That's Alright
TTITLE4=Way Back Home
TTITLE5=I Need Your Love So Bad
TTITLE6=Yonders Wall
TTITLE7=Man or Mouse
TTITLE8=Sweet Home Chicago
TTITLE9=I Like Your Style
TTITLE10=Drowning on Dry Land
TTITLE11=Good Things Don't Happen Everyday
TTITLE12=Ain't That a Shame
TTITLE13=Losing Battle
TTITLE14=It Ain't What'cha Got
TTITLE15=In the Heat of the Night
TTITLE16=Workin'
TTITLE17=Oh! Darling
TTITLE18=Inner Light
EXTD=
EXTT0=
EXTT1=
EXTT2=
EXTT3=
EXTT4=
EXTT5=
EXTT6=
EXTT7=
EXTT8=
EXTT9=
EXTT10=
EXTT11=
EXTT12=
EXTT13=
EXTT14=
EXTT15=
EXTT16=
EXTT17=
EXTT18=
PLAYORDER=
